<svg xmlns="http://www.w3.org/2000/svg" viewBox="0 0 1024 1024" width="1024" height="1024" role="img" aria-label="Trip Sheets logo — 8-bit pin coin">
  <defs>
    <linearGradient id="night" x1="0" y1="0" x2="0" y2="1">
      <stop offset="0%" stop-color="#1B1F2C"/>
      <stop offset="78%" stop-color="#0B0D14"/>
    </linearGradient>
    <radialGradient id="glow" cx="50%" cy="38%" r="60%">
      <stop offset="0%" stop-color="#FBD000" stop-opacity="0.14"/>
      <stop offset="100%" stop-color="#FBD000" stop-opacity="0"/>
    </radialGradient>
    <clipPath id="squircle">
      <rect x="0" y="0" width="1024" height="1024" rx="230" ry="230"/>
    </clipPath>
  </defs>
  <g clip-path="url(#squircle)">
    <rect width="1024" height="1024" fill="url(#night)"/>
    <rect width="1024" height="1024" fill="url(#glow)"/>
    <!-- corner rivets, echoing the ? block -->
    <rect x="70" y="70" width="26" height="26" rx="5" fill="#EBF0FF" opacity="0.10"/>
    <rect x="928" y="70" width="26" height="26" rx="5" fill="#EBF0FF" opacity="0.10"/>
    <rect x="70" y="928" width="26" height="26" rx="5" fill="#EBF0FF" opacity="0.10"/>
    <rect x="928" y="928" width="26" height="26" rx="5" fill="#EBF0FF" opacity="0.10"/>
    <!-- 8-bit pin coin -->
    <rect x="372" y="120" width="280" height="56" fill="#E52521"/>
    <rect x="316" y="176" width="392" height="56" fill="#E52521"/>
    <rect x="260" y="232" width="504" height="56" fill="#E52521"/>
    <rect x="260" y="288" width="504" height="56" fill="#E52521"/>
    <rect x="204" y="344" width="616" height="56" fill="#E52521"/>
    <rect x="204" y="400" width="616" height="56" fill="#E52521"/>
    <rect x="260" y="456" width="504" height="56" fill="#E52521"/>
    <rect x="260" y="512" width="504" height="56" fill="#E52521"/>
    <rect x="316" y="568" width="392" height="56" fill="#E52521"/>
    <rect x="316" y="624" width="392" height="56" fill="#E52521"/>
    <rect x="372" y="680" width="280" height="56" fill="#E52521"/>
    <rect x="428" y="736" width="168" height="56" fill="#E52521"/>
    <rect x="428" y="792" width="168" height="56" fill="#E52521"/>
    <rect x="484" y="848" width="56" height="56" fill="#E52521"/>
    <rect x="428" y="232" width="168" height="56" fill="#FBD000"/>
    <rect x="372" y="288" width="280" height="56" fill="#FBD000"/>
    <rect x="372" y="344" width="280" height="56" fill="#FBD000"/>
    <rect x="372" y="400" width="280" height="56" fill="#FBD000"/>
    <rect x="372" y="428" width="280" height="28" fill="#E0BA00"/>
    <rect x="428" y="456" width="168" height="56" fill="#E0BA00"/>
    <rect x="440" y="300" width="52" height="52" rx="8" fill="#EDEFF7" opacity="0.9"/>
  </g>
  <rect x="1" y="1" width="1022" height="1022" rx="229" ry="229" fill="none" stroke="#EBF0FF" stroke-opacity="0.10" stroke-width="2"/>
</svg>
